<?xml version="1.0" encoding="UTF-8"?>
<svg width="1440px" height="1024px" viewBox="0 0 1440 1024" version="1.1" xmlns="http://www.w3.org/2000/svg" xmlns:xlink="http://www.w3.org/1999/xlink">
    <!-- Generator: Sketch 64 (93537) - https://sketch.com -->
    <title>Scrum Meeting</title>
    <desc>Created with Sketch.</desc>
    <g id="Scrum-Meeting" stroke="none" stroke-width="1" fill="none" fill-rule="evenodd">
        <rect fill="#FFFFFF" x="0" y="0" width="1440" height="1024"></rect>
        <g id="Bricks" transform="translate(295.000000, 227.000000)" fill="#C6F6FB">
            <path d="M784.136383,329 L812.136383,329 C817.106945,329 821.136383,333.029437 821.136383,338 L821.136383,355 C821.136383,359.970563 817.106945,364 812.136383,364 L784.136383,364 C779.16582,364 775.136383,359.970563 775.136383,355 L775.136383,338 C775.136383,333.029437 779.16582,329 784.136383,329 Z" id="Shape"></path>
            <path d="M804.136383,380 L866.136383,380 C871.106945,380 875.136383,384.029437 875.136383,389 L875.136383,406 C875.136383,410.970563 871.106945,415 866.136383,415 L804.136383,415 C799.16582,415 795.136383,410.970563 795.136383,406 L795.136383,389 C795.136383,384.029437 799.16582,380 804.136383,380 Z" id="Shape"></path>
            <path d="M34,0 L76,0 C80.9705627,0 85,4.02943725 85,9 L85,26 C85,30.9705627 80.9705627,35 76,35 L34,35 C29.0294373,35 25,30.9705627 25,26 L25,9 C25,4.02943725 29.0294373,0 34,0 Z" id="Shape"></path>
            <path d="M9,446 L71,446 C75.9705627,446 80,450.029437 80,455 L80,472 C80,476.970563 75.9705627,481 71,481 L9,481 C4.02943725,481 0,476.970563 0,472 L0,455 C0,450.029437 4.02943725,446 9,446 Z" id="Shape"></path>
            <path d="M26,397 L54,397 C58.9705627,397 63,401.029437 63,406 L63,423 C63,427.970563 58.9705627,432 54,432 L26,432 C21.0294373,432 17,427.970563 17,423 L17,406 C17,401.029437 21.0294373,397 26,397 Z" id="Shape"></path>
        </g>
        <g id="Board" transform="translate(526.497551, 127.000000)">
            <path d="M20,2.27373675e-13 L429,2.27373675e-13 C440.045695,2.27373675e-13 449,8.954305 449,20 L449,332 C449,343.045695 440.045695,352 429,352 L20,352 C8.954305,352 -3.97903932e-13,343.045695 -3.97903932e-13,332 L-3.97903932e-13,20 C-3.97903932e-13,8.954305 8.954305,2.27373675e-13 20,2.27373675e-13 Z" id="Shape" fill="#8CEBF3" fill-rule="nonzero"></path>
            <path d="M20,15 C17.2385763,15 15,17.2385763 15,20 L15,332 C15,334.761424 17.2385763,337 20,337 L429,337 C431.761424,337 434,334.761424 434,332 L434,20 C434,17.2385763 431.761424,15 429,15 L20,15 Z" id="Shape" fill="#EEFEFF" fill-rule="nonzero"></path>
            <polygon id="Shape" fill="#FFFFFF" points="13.8798262 15 430.879826 15 13.8798262 335"></polygon>
            <polygon id="Shape" fill="#17699E" points="93.5024487 61 148.502449 61 148.502449 91 93.5024487 91"></polygon>
            <polygon id="Shape" fill="#17699E" points="159.502449 61 214.502449 61 214.502449 91 159.502449 91"></polygon>
            <polygon id="Shape" fill="#3BAFE7" points="159.502449 101 214.502449 101 214.502449 131 159.502449 131"></polygon>
            <polygon id="Shape" fill="#3BAFE7" points="159.502449 141 214.502449 141 214.502449 171 159.502449 171"></polygon>
            <polygon id="Shape" fill="#3BAFE7" points="176.502449 253 231.502449 253 231.502449 283 176.502449 283"></polygon>
            <polygon id="Shape" fill="#17699E" points="226.502449 61 281.502449 61 281.502449 91 226.502449 91"></polygon>
            <polygon id="Shape" fill="#17699E" points="326.502449 62 381.502449 62 381.502449 92 326.502449 92"></polygon>
            <polygon id="Shape" fill="#EBBBA2" points="93.5024487 215 148.502449 215 148.502449 244 93.5024487 244"></polygon>
            <polygon id="Shape" fill="#FFFFFF" opacity="0.400437128" points="13.8798262 15 430.879826 15 13.8798262 335"></polygon>
        </g>
        <g id="Lamp" transform="translate(949.000000, 238.000000)">
            <polygon id="Shape" fill="#E49A88" points="79 10 94 10 94 648 79 648"></polygon>
            <polygon id="Shape" fill="#FBD3C0" points="34.7276747 10 137.602692 10 171.624605 136.909852 0 136.909852"></polygon>
            <polygon id="Path" fill="#FBE8DE" points="146.449311 43 171.624605 136.909852 0 136.909852 25.6975383 43"></polygon>
            <polygon id="Path" fill="#EFBEA6" points="96.534039 10 137.602692 10 171.624605 136.909852 108.887223 136.909852 96.8183153 10 96.534039 10"></polygon>
            <polygon id="Path" fill="#EBBBA2" points="146.449311 43 171.624605 136.909852 108.887223 136.909852 99.9565583 43"></polygon>
            <polygon id="Shape" fill="#1F74AC" points="43.534039 0 127.534039 0 127.534039 10 43.534039 10"></polygon>
            <polygon id="Shape" fill="#484667" points="96.534039 0 127.534039 0 127.534039 10 96.534039 10"></polygon>
            <path d="M58,632 L115,632 C117.761424,632 120,634.238576 120,637 L120,643 C120,645.761424 117.761424,648 115,648 L58,648 C55.2385763,648 53,645.761424 53,643 L53,637 C53,634.238576 55.2385763,632 58,632 Z" id="Shape" fill="#BE715D"></path>
        </g>
        <g id="Man" transform="translate(339.000000, 158.285472)">
            <path d="M306.444489,60.9546413 C310.502093,53.5632785 312.563839,49.2390012 312.629725,47.9818095 C312.728555,46.0960219 307.77799,35.5099226 308.111366,29.1487429 C308.444741,22.7875632 311.49725,14.1903356 312.85901,15.9065962 C313.76685,17.0507699 314.783176,18.5635671 315.907988,20.4449878 C313.912365,11.8355334 314.744646,7.62671729 318.404832,7.81853952 C323.895111,8.10627286 332.261818,20.2828188 334.820047,27.251159 C337.378277,34.2194993 323.471496,51.2055061 323.360099,53.3310839 C323.285834,54.7481357 321.085234,61.7219302 316.758297,74.2524674 L306.444489,60.9546413 Z" id="Shape" fill="#FBD3C0"></path>
            <path d="M317,36.7145277 L327.055098,31.7145277 C322.164984,21.2824507 318.813285,14.615784 317,11.7145277 C313.666667,6.38119441 309,2.71452774 303,0.71452774 L286,4.71452774 L282,11.7145277 C299.381924,10.3811944 309.381924,12.3811944 312,17.7145277 C314.618076,23.0478611 316.284743,29.3811944 317,36.7145277 Z" id="Shape" fill="#17699E"></path>
            <polygon id="Shape" fill="#484667" points="286 4.71452774 303 0.71452774 301.498776 7.71452774"></polygon>
            <path d="M318.404832,10.8185395 C316.202416,14.0825317 315.468277,16.5478611 316.202416,18.2145277 C316.936555,19.8811944 320.554115,23.7145277 327.055098,29.7145277 L318.404832,10.8185395 Z" id="Shape" fill="#FBD3C0"></path>
            <path d="M144.17215,102.061468 C129.505766,98.5050207 117.825525,89.8779176 109.131428,76.1801589 C96.0902825,55.6335208 116.225674,34.7423294 112.366813,29.9595635 C109.794239,26.7710528 107.396528,24.9454901 105.173679,24.4828754 C122.895537,16.9697735 135.46294,12.958972 142.875889,12.450471 C156.167603,11.5387083 170.120609,12.4689107 181.776042,36.0792184 C189.546331,51.8194235 187.777391,70.499656 176.469222,92.119916 L144.17215,102.061468 Z" id="Shape" fill="#624543"></path>
            <path d="M114.926095,84.0483954 C112.866097,81.6437527 110.934542,79.0210072 109.131428,76.1801589 C97.8146495,58.3503024 111.480906,40.2609858 112.771184,32.6636276 C117.317742,40.6638158 118.812593,48.5928692 117.255736,56.4507878 C115.099051,67.3362198 112.496695,74.4031638 114.926095,84.0483954 L114.926095,84.0483954 Z" id="Path" fill="#785452"></path>
            <path d="M49.4975513,674.714528 C37.0988941,709.663776 33.9992298,727.1384 40.1985584,727.1384 C49.4975513,727.1384 91.5643371,726.316289 103.460967,726.316289 C115.357597,726.316289 122.243761,720.502591 103.460967,710.714528 C84.6781729,700.926464 72.9318997,696.928049 72.9318997,692.714528 C72.9318997,689.905513 74.4302771,681.664466 77.427032,667.991386 L49.4975513,674.714528 Z" id="Shape" fill="#BE715D"></path>
            <path d="M176.306602,135.113009 C202.682589,135.113009 246.571711,155.717089 252.059871,153.797541 C255.718643,152.517842 272.780439,120.068924 303.245258,56.4507878 L327.055098,61.2452915 C295.55364,149.348946 276.439113,195.949179 269.711517,201.04599 C262.983922,206.142802 229.469857,203.137844 169.169323,192.031117 C156.343517,154.085711 158.72261,135.113009 176.306602,135.113009 Z" id="Shape" fill="#45BDF6"></path>
            <path d="M243.190391,202.918971 C227.418841,201.719041 204.933826,198.488574 175.735347,193.227568 L173.884541,135.243591 C174.609405,135.161901 175.364986,135.118539 176.151282,135.113505 C179.547398,143.628865 185.615887,152.995872 194.356748,163.214528 C205.914517,176.726339 222.192398,189.961153 243.190391,202.918971 L243.190391,202.918971 Z" id="Path" fill="#2EA5DE"></path>
            <path d="M213.497551,674.714528 C208.432227,709.663776 208.99923,727.1384 215.198558,727.1384 C224.497551,727.1384 266.564337,726.316289 278.460967,726.316289 C290.357597,726.316289 297.243761,720.502591 278.460967,710.714528 C259.678173,700.926464 242.9319,696.928049 242.9319,692.714528 C242.9319,689.905513 242.430277,681.664466 241.427032,667.991386 L213.497551,674.714528 Z" id="Shape" fill="#BE715D"></path>
            <path d="M278,718.714528 C278.552285,718.714528 279,719.162243 279,719.714528 C279,720.266812 278.552285,720.714528 278,720.714528 L228.130025,720.714528 C227.57774,720.714528 227.130025,720.266812 227.130025,719.714528 C227.130025,719.162243 227.57774,718.714528 228.130025,718.714528 L278,718.714528 Z" id="Shape" fill="#DBB7A7" fill-rule="nonzero"></path>
            <path d="M103.460967,317.714528 C94.5703718,335.545096 98.5359152,356.271515 115.357597,379.893783 C132.179279,403.516052 163.710285,447.051299 209.950615,510.499526 L209.950615,697.714528 L247.825047,697.714528 C264.520797,572.904527 270.149766,501.449756 264.711955,483.350214 C259.274144,465.250673 229.406891,412.098926 175.110196,323.894975 L103.460967,317.714528 Z" id="Shape" fill="#2E4F7E"></path>
            <path d="M147.128828,81.7145277 C142.823449,104.53409 139.27969,117.170381 136.497551,119.623403 C133.715413,122.076425 128.395012,125.773466 120.536348,130.714528 C131.542181,147.770352 144.045098,155.437019 158.045098,153.714528 C172.045098,151.992036 176.489191,143.914461 171.377378,129.481801 C168.12416,126.611262 166.497551,122.728338 166.497551,117.833028 C166.497551,112.937718 167.368433,100.898218 169.110196,81.7145277 L147.128828,81.7145277 Z" id="Shape" fill="#EFBEA6"></path>
            <path d="M151.851087,81.7145277 L169.110196,81.7145277 C167.368433,100.898218 166.497551,112.937718 166.497551,117.833028 C154.297441,117.833028 147.783564,103.538179 144.497551,97.2056011 C144.371476,96.9626375 144.249344,96.7336568 144.131157,96.5186587 C144.465674,94.998978 144.805693,93.4057421 145.151214,91.738951 L151.851087,81.7145277 Z" id="Path" fill="#E6B197"></path>
            <path d="M64.382936,329.950993 L72.9318997,515.067682 L44.4975513,697.714528 L82.427032,697.714528 C112.424957,597.061628 129.158889,538.732487 132.628828,522.727104 C136.098767,506.72172 143.015445,440.384195 153.378863,323.714528 L64.382936,329.950993 Z" id="Shape" fill="#17699E"></path>
            <path d="M85.2377707,358.930225 C85.2212851,358.378187 85.6554365,357.917307 86.2074752,357.900366 C86.7595138,357.884335 87.2203938,358.318487 87.2368795,358.870525 L91.8425834,513.096904 L91.8273747,513.303002 L59.3137921,694.890776 C59.2164526,695.434416 58.6968368,695.796213 58.1531977,695.698873 C57.6095586,695.601534 57.2477613,695.081918 57.3451007,694.538279 L89.8403737,513.052764 L85.2377707,358.930225 Z" id="Shape" fill="#60B5BC" fill-rule="nonzero"></path>
            <path d="M182.487709,56.9900537 C186.264687,86.7771571 183.40313,103.681226 173.903038,107.702261 C159.652901,113.733814 144.690579,107.702261 136.43337,94.5046295 C129.676756,92.5802907 125.960619,89.6076038 125.284958,85.5865687 C124.609296,81.5655337 126.63628,80.560275 131.36591,82.5707925 C135.419878,77.699552 136.43337,72.2245649 134.406386,66.145831 C132.379402,60.0670971 145.544953,53.3675218 173.903038,46.0471053 L182.487709,56.9900537 Z" id="Shape" fill="#FBD3C0"></path>
            <path d="M66.0767261,343.562297 C70.5447125,347.551515 73.7058895,349.171518 75.5602572,348.422305 C78.3418088,347.298485 84.649324,348.931132 89.3005267,350.368383 C93.9517294,351.805635 97.6401181,357.690936 92.8218541,356.443183 C89.609678,355.611347 87.3854674,355.445167 86.1492223,355.944643 C104.777758,365.674781 111.744405,371.847863 107.049162,374.463887 C102.353919,377.079912 95.8460899,378.271199 87.5256738,378.03775 C81.377164,375.228025 77.6785648,372.277856 76.4298762,369.187243 C74.5568432,364.551324 71.0646244,360.960681 68.576539,357.651794 C66.9178154,355.445869 65.0957244,353.66546 63.1102661,352.310568 L66.0767261,343.562297 Z" id="Shape" fill="#FBD3C0"></path>
            <path d="M123.485812,126.714528 C137.041492,141.905881 148.999186,149.185071 159.358895,148.552098 C169.718605,147.919125 173.247277,141.51574 169.944912,129.341942 C181.381227,134.170329 187.099385,146.627858 187.099385,166.714528 C187.099385,196.844533 187.140808,202.28876 187.099385,245.714528 C187.07177,274.665039 187.646109,306.665039 188.8224,341.714528 C168.253296,344.381194 145.471445,345.714528 120.476844,345.714528 C95.4822444,345.714528 72.766445,341.668802 52.3294464,333.57735 C60.3366697,268.428565 67.4719663,224.780958 73.7353362,202.634528 C79.998706,180.488098 86.1610076,157.713323 92.222241,134.310204 L123.485812,126.714528 Z" id="Shape" fill="#45BDF6"></path>
            <path d="M74.7367272,340.613022 C68.8323889,339.207687 63.091594,337.512 57.5143426,335.525962 C55.9646113,334.391309 54.3102921,333.141087 52.5513852,331.775297 C58.3713291,284.616849 63.7287802,248.863189 68.6237385,224.514316 C70.1271827,230.329881 72.1648455,237.396618 74.7367272,245.714528 L74.7367272,340.613022 Z" id="Path" fill="#67CDFF"></path>
            <path d="M105.532136,142.154298 C105.870125,166.572715 90.4629776,195.756038 76.0436364,213.41461 C66.4307422,225.186992 57.0272587,235.620297 47.8331859,244.714528 L76.0436364,347.57205 L64.4784286,362.331614 C24.2220158,283.541961 2.7897257,239.599254 0.181558353,230.503494 C-1.07646578,226.116242 16.5946459,209.053242 47.8331859,172.035197 C80.260512,133.608427 105.294987,125.021217 105.532136,142.154298 Z" id="Shape" fill="#67CDFF"></path>
            <path d="M111,129.950788 C112,128.714528 128,122.714528 129,124.714528 C130,126.714528 141.736135,144.214528 156.620676,142.714528 C171.505218,141.214528 170.494782,128.714528 171,128.714528 C171.505218,128.714528 181.099385,132.512482 182.099385,135.113505 C183.099385,137.714528 185.848657,157.714528 156.620676,157.714528 C127.392696,157.714528 110,131.187048 111,129.950788 Z" id="Shape" fill="#2EA5DE"></path>
            <polygon id="Shape" fill="#17699E" points="109 191.714528 187 191.714528 187 293.714528 109 293.714528"></polygon>
            <circle id="Shape" fill="#624543" cx="152.5" cy="74.2145277" r="2.5"></circle>
            <circle id="Shape" fill="#624543" cx="176.5" cy="69.2145277" r="2.5"></circle>
            <path d="M146.048844,69.1061692 C145.777082,69.5869644 145.167014,69.7564194 144.686219,69.4846577 C144.205424,69.2128959 144.035969,68.602828 144.30773,68.1220328 C147.078863,63.2194033 153.952525,61.5632504 157.246686,64.5730005 C157.654414,64.9455267 157.682952,65.5780483 157.310425,65.9857769 C156.937899,66.3935056 156.305378,66.4220428 155.897649,66.0495166 C153.613054,63.9621686 148.222241,65.2610412 146.048844,69.1061692 Z" id="Path" fill="#8E5E49" fill-rule="nonzero"></path>
            <path d="M171.048844,63.1061692 C170.777082,63.5869644 170.167014,63.7564194 169.686219,63.4846577 C169.205424,63.2128959 169.035969,62.602828 169.30773,62.1220328 C172.078863,57.2194033 178.952525,55.5632504 182.246686,58.5730005 C182.654414,58.9455267 182.682952,59.5780483 182.310425,59.9857769 C181.937899,60.3935056 181.305378,60.4220428 180.897649,60.0495166 C178.613054,57.9621686 173.222241,59.2610412 171.048844,63.1061692 Z" id="Path" fill="#8E5E49" fill-rule="nonzero"></path>
            <path d="M167.051317,73.0307555 C166.876669,72.5068122 167.159829,71.9404922 167.683772,71.7658444 C168.207716,71.5911967 168.774036,71.8743567 168.948683,72.3983 C169.252975,73.3111749 170.082481,74.5710369 171.483412,76.3319479 C171.70844,76.6147985 171.948762,76.9117592 172.22842,77.2533501 C175.561563,81.3246363 175.603271,81.3787211 175.947121,82.3936509 C176.479416,83.9648076 175.616276,84.7501951 173.186447,86.090196 C173.072342,86.15305 173.072342,86.15305 172.959081,86.215339 C171.457741,87.0412949 170.898879,87.4888279 170.898879,87.7145277 C170.898879,88.2668125 170.451164,88.7145277 169.898879,88.7145277 C169.346595,88.7145277 168.898879,88.2668125 168.898879,87.7145277 C168.898879,86.3617442 169.678399,85.7375092 171.995047,84.463015 C172.108515,84.4006122 172.108515,84.4006122 172.220621,84.3388595 C173.655715,83.5474343 174.09189,83.1505507 174.052879,83.0354046 C173.833937,82.3891605 173.600735,82.086757 170.680895,78.5203015 C170.395753,78.1720135 170.14978,77.8680689 169.9183,77.5771076 C168.374012,75.6360033 167.453916,74.2385522 167.051317,73.0307555 Z" id="Shape" fill="#8E5E49" fill-rule="nonzero"></path>
            <path d="M164.693077,98.1037025 C164.146167,98.0268393 163.765119,97.5211713 163.841982,96.9742613 C163.918845,96.4273513 164.424513,96.0463032 164.971423,96.1231663 C168.041965,96.5547029 171.44524,95.9477663 172.91564,94.5827376 C173.320398,94.2069856 173.953126,94.2304993 174.328878,94.635257 C174.70463,95.0400148 174.681116,95.672743 174.276359,96.0484951 C172.280944,97.9009151 168.300784,98.6107327 164.693077,98.1037025 Z" id="Path" fill="#8E5E49" fill-rule="nonzero"></path>
            <path d="M118.343616,140.585012 C117.86286,140.856844 117.252768,140.687479 116.980935,140.206724 C116.709103,139.725969 116.878468,139.115876 117.359224,138.844043 L131.507804,130.844043 C131.988559,130.572211 132.598652,130.741576 132.870484,131.222332 C133.142317,131.703087 132.972951,132.31318 132.492196,132.585012 L118.343616,140.585012 Z" id="Shape" fill="#17699E" fill-rule="nonzero"></path>
            <path d="M69.2818129,222.432981 C68.885022,222.817137 68.2519399,222.806894 67.8677844,222.410103 C67.4836288,222.013312 67.4938717,221.38023 67.8906626,220.996074 L87.3044249,202.200518 C87.7012157,201.816362 88.3342978,201.826605 88.7184533,202.223396 C89.1026089,202.620187 89.092366,203.253269 88.6955751,203.637425 L69.2818129,222.432981 Z" id="Shape" fill="#17699E" fill-rule="nonzero"></path>
            <path d="M251.042783,153.662156 C251.202599,153.133499 251.760716,152.834495 252.289372,152.994311 C252.818029,153.154127 253.117033,153.712244 252.957217,154.2409 C251.343818,159.577872 251.18352,164.471115 252.461454,168.939561 C252.613314,169.470557 252.305963,170.024122 251.774967,170.175981 C251.243971,170.327841 250.690406,170.020491 250.538546,169.489495 C249.149813,164.633626 249.322849,159.351536 251.042783,153.662156 Z" id="Shape" fill="#17699E" fill-rule="nonzero"></path>
            <path d="M110.710927,27.6209346 C110.182221,27.4612837 109.883042,26.9032603 110.042693,26.3745542 C110.202344,25.8458482 110.760367,25.5466699 111.289073,25.7063207 C119.038336,28.0463283 123,33.2032896 123,40.9825038 C123,48.5508236 121.086632,54.4076884 117.227885,58.503834 C116.849184,58.9058338 116.216301,58.924721 115.814301,58.5460197 C115.412301,58.1673185 115.393414,57.5344353 115.772115,57.1324355 C119.246701,53.4440852 121,48.077196 121,40.9825038 C121,34.0987059 117.628331,29.7097497 110.710927,27.6209346 Z" id="Shape" fill="#A07F70" fill-rule="nonzero"></path>
            <path d="M315.785181,21.2564099 C315.238487,21.1780222 314.85885,20.6712939 314.937238,20.1246003 C315.015625,19.5779068 315.522354,19.1982698 316.069047,19.2766574 L333.141933,21.7246515 C333.688627,21.8030391 334.068264,22.3097675 333.989876,22.856461 C333.911489,23.4031546 333.40476,23.7827916 332.858067,23.704404 L315.785181,21.2564099 Z" id="Shape" fill="#AD8776" fill-rule="nonzero"></path>
            <path d="M316.901036,14.7096188 C316.351463,14.6549626 315.950253,14.1651375 316.004909,13.6155639 C316.059565,13.0659903 316.54939,12.6647805 317.098964,12.7194367 L327.154062,13.7194367 C327.703635,13.7740929 328.104845,14.263918 328.050189,14.8134916 C327.995533,15.3630652 327.505708,15.764275 326.956134,15.7096188 L316.901036,14.7096188 Z" id="Shape" fill="#AD8776" fill-rule="nonzero"></path>
            <path d="M44.3629443,322.763255 C27.4543148,273.561498 19,245.378589 19,238.214528 C19,230.002063 46.4086375,197.66873 101.225913,141.214528 L105.528427,141.962815 C105.530011,142.026281 105.531247,142.090109 105.532136,142.154298 C105.870125,166.572715 90.4629776,195.756038 76.0436364,213.41461 C66.4307422,225.186992 57.0272587,235.620297 47.8331859,244.714528 L76.0436364,347.57205 L64.4784286,362.331614 C57.1493216,347.987122 50.4441601,334.797668 44.3629443,322.763255 L44.3629443,322.763255 Z" id="Path" fill="#45BDF6"></path>
            <path d="M44.4975513,720.714528 C43.9452666,720.714528 43.4975513,720.266812 43.4975513,719.714528 C43.4975513,719.162243 43.9452666,718.714528 44.4975513,718.714528 L105,718.714528 C105.552285,718.714528 106,719.162243 106,719.714528 C106,720.266812 105.552285,720.714528 105,720.714528 L44.4975513,720.714528 Z" id="Shape" fill="#DBB7A7" fill-rule="nonzero"></path>
            <path d="M87.3933565,364.126588 C86.9543045,363.791548 86.869986,363.164022 87.205026,362.72497 C87.5400659,362.285918 88.1675914,362.2016 88.6066435,362.53664 L106.144241,375.919554 C106.583293,376.254594 106.667612,376.882119 106.332572,377.321171 C105.997532,377.760223 105.370006,377.844542 104.930954,377.509502 L87.3933565,364.126588 Z" id="Shape" fill="#AD8776" fill-rule="nonzero"></path>
            <path d="M82.4134104,369.832955 C81.9661236,369.508991 81.8661512,368.883768 82.1901156,368.436481 C82.5140801,367.989194 83.1393028,367.889222 83.5865896,368.213186 L95.5865896,376.904643 C96.0338764,377.228608 96.1338488,377.853831 95.8098844,378.301117 C95.4859199,378.748404 94.8606972,378.848377 94.4134104,378.524412 L82.4134104,369.832955 Z" id="Shape" fill="#AD8776" fill-rule="nonzero"></path>
        </g>
        <g id="Woman" transform="translate(697.497551, 271.000000)">
            <path d="M89.7097994,66.5657493 C82.8481735,39.2449375 84.5793352,22.1931571 94.9032847,15.4104079 C105.227234,8.62765865 114.045081,7.04757918 121.356825,10.6701694 C142.231945,8.67085459 156.460782,16.3331684 164.043338,33.6571109 C175.417172,59.6430247 161.323296,82.09785 141.925384,91.4251644 C128.993443,97.643374 111.588248,89.3569023 89.7097994,66.5657493 Z" id="Shape" fill="#8D634E"></path>
            <path d="M123.336002,10.5082141 C143.133766,9.16998852 156.702878,16.8862875 164.043338,33.6571109 C175.417172,59.6430247 161.323296,82.09785 141.925384,91.4251644 C141.423553,91.6664656 140.914985,91.8859245 140.399682,92.0835413 C135.10942,70.4700144 129.474323,56.6088339 123.494391,50.5 C117.138225,44.006821 117.085428,30.6762277 123.336001,10.5082201 L123.336002,10.5082141 Z" id="Path" fill="#845339"></path>
            <path d="M151.546722,16.1704305 C157.393858,9.90105685 174.140415,-15.2177204 189.758365,15.2950008 C200.170332,35.6368148 192.684045,43.6637062 167.299506,39.3756747 C152.899559,28.0850944 147.648631,20.350013 151.546722,16.1704305 Z" id="Shape" fill="#845339"></path>
            <path d="M155.277498,11.8618387 C161.636304,4.56462064 172.332075,-5.92369264 183.283358,5.67038181 C181.890737,14.3562331 178.646897,19.297935 173.551839,20.4954877 C164.961757,22.5145177 158.87031,19.6366347 155.277498,11.8618387 L155.277498,11.8618387 Z" id="Path" fill="#8D634E"></path>
            <path d="M245.052387,265.923837 C243.204479,313.301778 242.280525,341.452198 242.280525,350.375097 C242.280525,363.759445 247.052387,369.748134 245.052387,416.926337 C243.052387,464.104541 254.280525,568.53228 254.280525,574.671618 C254.280525,580.810956 235.681667,590.719991 222.867027,597.326015 C210.052387,603.932038 203.052387,613.841074 226.052387,613.841074 C235.645106,613.841074 247.442934,603 254.280525,603 C263.837095,603 267.229097,613.841074 272.475425,613.841074 C281.475425,613.841074 270.475425,582.378646 270.475425,577.507944 C270.475425,572.637243 289.510651,319.235853 286.519466,277.126167 C284.525344,249.053043 270.702984,245.318933 245.052387,265.923837 Z" id="Shape" fill="#FBD3C0"></path>
            <path d="M294.499089,266.60305 C319.413741,245.045706 333.35739,248.260249 336.330036,276.246678 C340.789005,318.226321 330.609565,572.172565 330.77955,577.040299 C330.949535,581.908033 341.042075,613.0372 332.047558,613.351295 C327.628874,613.505599 324.91728,602.741293 318,603 C310.836709,603.267908 298.213263,612.942939 286.519466,613.351295 C263.533477,614.153984 271.316726,605.626829 283.893013,598.577605 C296.469299,591.528381 314.711007,580.976292 314.496747,574.840694 C314.282487,568.705096 299.416714,464.732828 299.769,417.513564 C300.121287,370.294301 295.143329,364.475796 294.676222,351.099602 C294.364817,342.182138 294.305773,314.016621 294.499089,266.60305 Z" id="Shape" fill="#FBD3C0"></path>
            <path d="M244,584 C248,586 251.666667,587 255,587 C258.333333,587 264,585.333333 272,582 C274.666667,594 276,601 276,603 C276,605 276,608.613691 276,613.841074 L257,613.841074 L255,608 C251,611.894049 245,613.841074 237,613.841074 C225,613.841074 219.838887,613.841074 215.919444,613.841074 C212,613.841074 203,605.841074 220,597.920537 C231.333333,592.640179 239.333333,588 244,584 Z" id="Shape" fill="#2E4F7E"></path>
            <path d="M306,584 C310,586 313.666667,587 317,587 C320.333333,587 326,585.333333 334,582 C336.666667,594 338,601 338,603 C338,605 338,608.613691 338,613.841074 L319,613.841074 L317,608 C313,611.894049 307,613.841074 299,613.841074 C287,613.841074 281.838887,613.841074 277.919444,613.841074 C274,613.841074 265,605.841074 282,597.920537 C293.333333,592.640179 301.333333,588 306,584 Z" id="Shape" fill="#2E4F7E"></path>
            <path d="M142.168118,124.656153 L174.766688,127.113269 C166.029507,176.737203 156.686469,204.987008 146.737574,211.862686 C131.814231,222.176201 52.6743738,273.834358 49.671758,275.520025 C47.8612463,276.536445 40.4890229,283.540307 33.6357025,287 C29.1232377,289.277982 24.3561857,288.449214 23.2467447,288.919353 C20.4523366,290.103518 1.94932251,286.6935 0.994016614,283.605301 C0.0387107168,280.517103 14.272191,277.516538 15.988261,276.402109 C17.7043311,275.28768 26.7547179,273.055475 30.3989263,268.187281 C34.0431347,263.319087 14.9071629,268.196751 13.9260619,266.685988 C12.9449608,265.175225 25.1803974,260.397393 30.8018958,259.968596 C36.4233942,259.539799 42.0234861,265.931188 46.0646387,266.299488 C48.7587404,266.545021 75.972483,241.513332 127.705867,191.204422 L142.168118,124.656153 Z" id="Shape" fill="#FBD3C0"></path>
            <path d="M140.900463,120.910678 C144.520963,112.141871 186.294615,127.129134 186.294615,136.869048 C186.294615,146.608962 156.359,201.326532 149.292004,210.412652 C144.580674,216.470065 129.650822,226.665848 104.502449,241 L92.5024487,225 L124.554254,191 C133.03806,150.119656 138.486796,126.756549 140.900463,120.910678 Z" id="Shape" fill="#26BAC2"></path>
            <path d="M8.91922285,287.90901 C8.41719047,288.139188 7.82361664,287.918807 7.5934386,287.416774 C7.36326057,286.914742 7.58364206,286.321168 8.08567445,286.09099 L27.5832258,277.151511 C28.0852582,276.921333 28.678832,277.141714 28.90901,277.643747 C29.1391881,278.145779 28.9188066,278.739353 28.4167742,278.969531 L8.91922285,287.90901 Z" id="Path" fill="#AD8776" fill-rule="nonzero"></path>
            <path d="M18.5104713,289.279085 C17.9770679,289.422261 17.4285922,289.105919 17.2854164,288.572515 C17.1422407,288.039112 17.4585826,287.490636 17.991986,287.347461 C19.3895611,286.972324 23.4575554,285.052088 30.04263,281.642254 C30.5330647,281.388301 31.1365103,281.580007 31.3904636,282.070442 C31.6444168,282.560877 31.4527107,283.164322 30.9622759,283.418276 C24.2107523,286.914299 20.1112638,288.849401 18.5104713,289.279085 Z" id="Path" fill="#AD8776" fill-rule="nonzero"></path>
            <path d="M139.052387,80.638447 C149.374072,94.7735314 158.320594,102.841074 165.891952,104.841074 C177.248989,107.841074 170.874418,122.841074 164.052387,130.841074 C159.504366,136.174407 156.504366,137.968685 155.052387,136.223909 C149.132503,129.968685 143.79917,123.50774 139.052387,116.841074 C134.305605,110.174407 127.972271,101.560716 120.052387,91 L139.052387,80.638447 Z" id="Shape" fill="#EFBEA6"></path>
            <path d="M147.202897,90.8635668 C147.13731,97.1234282 142.230871,102.753777 132.483581,107.754614 C128.899364,102.856383 124.755633,97.2715116 120.052387,91 L139.052387,80.638447 C141.871832,84.4995496 144.588669,87.9079229 147.202897,90.8635668 L147.202897,90.8635668 Z" id="Path" fill="#E6B197"></path>
            <path d="M259.906586,163.508036 C268.290942,164.535875 283.05601,175.36653 304.201788,196 C335.920455,226.950205 335.920455,286.679714 337.737518,312.664936 C338.948894,329.988417 345.851491,369.838706 358.445308,432.215802 L239.301089,440.547178 C233.779749,345.515726 231.019078,274.333333 231.019078,227 C231.019078,179.666667 240.648248,158.502679 259.906586,163.508036 Z" id="Shape" fill="#385F96"></path>
            <path d="M233.501134,326.178877 C252.304484,318.415976 263.638253,314.131668 267.502449,313.325955 C275.125071,311.736583 276,278.060521 276,273.446831 C276,268.833142 265.233269,267.833775 255.502449,267.833775 C245.771628,267.833775 270.502449,257.639831 280.502449,257 C290.502449,256.360169 276,253.32866 267.502449,254.689986 C259.004897,256.051311 281.000197,244.841074 286.838375,241 C292.676552,237.158926 255.502449,250.360255 255.502449,241 C255.502449,234.75983 251.33698,218.994829 243.006042,193.704995 L256.707825,162.907255 C257.742805,163.022521 258.809058,163.222782 259.906586,163.508036 C268.290942,164.535875 283.05601,175.36653 304.201788,196 C335.920455,226.950205 335.920455,286.679714 337.737518,312.664936 C338.948894,329.988417 345.851491,369.838706 358.445308,432.215802 L239.301089,440.547178 C236.802361,397.539907 234.869042,359.417138 233.501134,326.178871 L233.501134,326.178877 Z" id="Path" fill="#484667"></path>
            <path d="M138.996944,124.914026 C138.996944,122.310379 139.331296,120.005704 140,118 C144.506726,124.450702 148.173392,126.450702 151,124 C156.809143,118.963405 159.238541,110.982511 158.288194,100.057318 C162.03859,99.3917716 164.624197,98.927096 166.045015,98.663291 C183.637902,95.3967997 224.211886,127.07759 246.522282,144.252078 C261.395879,155.701736 271.221785,165.302912 276,173.055606 C273.324161,178.937545 266.653563,188.756851 255.988206,202.513526 C245.322849,216.2702 236.999807,224.432358 231.019078,227 C214.339693,214.230632 203.659936,206.068474 198.979808,202.513526 C191.959616,197.181103 177.454283,199.702615 169,192 C160.545717,184.297385 152.908058,158.976985 144.107684,146.297563 C135.30731,133.618141 138.996944,128.819496 138.996944,124.914026 Z" id="Shape" fill="#26BAC2"></path>
            <path d="M263.483052,192.600899 C262.283032,192.196191 261.078868,191.668714 259.879826,191 C243.966307,182.124919 227.798288,152.92472 210.991571,147 C204.53079,144.722439 194.009492,147.77361 188.888408,147 C170.423433,144.210614 165.502449,145.128502 165.502449,147 C165.502449,157.058755 163.882476,167.839784 160.64253,179.343087 C155.257546,168.645188 149.937762,154.697435 144.107684,146.297563 C135.30731,133.618141 138.996944,128.819496 138.996944,124.914026 C138.996944,122.310379 139.331296,120.005704 140,118 C144.506726,124.450702 148.173392,126.450702 151,124 C156.809143,118.963405 159.238541,110.982511 158.288194,100.057318 C162.03859,99.3917716 164.624197,98.927096 166.045015,98.663291 C183.637902,95.3967997 224.211886,127.07759 246.522282,144.252078 C261.395879,155.701736 271.221785,165.302912 276,173.055606 C274.018426,177.411435 269.84611,183.926533 263.483052,192.600899 L263.483052,192.600899 Z" id="Path" fill="#2BA6AD"></path>
            <path d="M89.9100851,49.8456168 C90.5630223,50.8850185 93.1448411,50.1186184 97.6555416,47.5464164 C102.166242,44.9742145 105.332913,42.2434271 107.155554,39.3540542 C105.981804,42.7549462 107.508258,49.6860654 111.734916,60.1474117 C115.961574,70.6087581 127.956466,75.5879927 147.719591,75.0851155 C152.011237,73.351178 153.629872,74.2190094 152.575495,77.6886097 C151.521119,81.15821 147.901143,83.6207702 141.71557,85.0762903 C130.452854,103.076572 117.953027,109.776804 104.216091,105.176987 C90.4791536,100.577171 85.7104851,82.1333805 89.9100851,49.8456168 Z" id="Shape" fill="#FBD3C0"></path>
            <circle id="Shape" fill="#624543" cx="92.0024487" cy="68.5" r="2.5"></circle>
            <circle id="Shape" fill="#624543" cx="113.002449" cy="73.5" r="2.5"></circle>
            <path d="M88.6370997,57.6338106 C88.2870558,58.0609964 87.6569866,58.1235322 87.2298008,57.7734882 C86.8026151,57.4234443 86.7400793,56.7933751 87.0901232,56.3661894 C88.3813555,54.7903986 90.2146207,54 92.5024487,54 C94.7969859,54 97.0363385,55.1196763 99.2095554,57.2928932 C99.6000797,57.6834175 99.6000797,58.3165825 99.2095554,58.7071068 C98.8190311,59.0976311 98.1858662,59.0976311 97.7953419,58.7071068 C95.9685588,56.8803237 94.2079114,56 92.5024487,56 C90.7902766,56 89.5309837,56.5429347 88.6370997,57.6338106 Z" id="Shape" fill="#8E5E49" fill-rule="nonzero"></path>
            <path d="M109.775023,61.9379746 C109.256994,62.1294539 108.681824,61.864733 108.490345,61.346704 C108.298865,60.8286749 108.563586,60.2535047 109.081615,60.0620254 C113.180505,58.5469511 117.68459,59.0842364 120.834824,63.0423925 C121.178748,63.4745206 121.107245,64.1036352 120.675117,64.4475592 C120.242989,64.7914832 119.613874,64.7199796 119.26995,64.2878515 C116.749242,61.1206721 113.148274,60.6911183 109.775023,61.9379746 Z" id="Shape" fill="#8E5E49" fill-rule="nonzero"></path>
            <path d="M99.3648589,85.2109572 C99.0697649,85.0960771 98.6965819,85.00746 97.8931761,84.8495052 C97.7832382,84.8279141 97.7832382,84.8279141 97.6718866,84.8060011 C96.0504776,84.4862572 95.3609783,84.2727432 94.7953419,83.7071068 C94.0532665,82.9650314 94.3034634,82.1064047 95.0937186,80.7626887 C95.3309827,80.359255 95.6265697,79.905957 96.0205652,79.3330219 C96.1732078,79.1110541 96.3345946,78.8796526 96.5535063,78.5680826 C96.5390445,78.5886657 96.9794124,77.9627487 97.1035317,77.7855557 C97.2535593,77.5713759 97.3830478,77.3852455 97.5052233,77.2078584 C98.8092617,75.3145198 99.455928,74.0985406 99.455928,73.5 C99.455928,72.9477153 99.9036432,72.5 100.455928,72.5 C101.008213,72.5 101.455928,72.9477153 101.455928,73.5 C101.455928,74.6850381 100.726146,76.0573057 99.1523448,78.3423146 C99.0268571,78.5245107 98.8944654,78.7148142 98.7416299,78.9330026 C98.6161103,79.1121947 98.1744314,79.739975 98.1899622,79.7178705 C97.9745789,80.0244186 97.8166235,80.2509 97.6685112,80.46628 C97.2989646,81.0036623 97.0265082,81.4214884 96.8176801,81.7765707 C96.6601892,82.0443616 96.5445779,82.2681304 96.4717594,82.4417462 C96.7609788,82.5581503 97.2687709,82.6879887 98.0588369,82.8437907 C98.1684512,82.8653618 98.1684512,82.8653618 98.2790029,82.8870736 C100.732426,83.3694326 101.455928,83.6510918 101.455928,85 C101.455928,85.5522847 101.008213,86 100.455928,86 C99.9955737,86 99.6078741,85.6889286 99.4915602,85.2655169 C99.4583984,85.2495132 99.4160489,85.2308854 99.3648589,85.2109572 Z" id="Shape" fill="#8E5E49" fill-rule="nonzero"></path>
            <path d="M99.7130443,92.5498329 C99.1661343,92.4729697 98.7850861,91.9673017 98.8619493,91.4203918 C98.9388125,90.8734818 99.4444805,90.4924336 99.9913905,90.5692968 C103.585765,91.0744532 104.859524,97.1110007 100.873497,98.7578801 C100.363063,98.9687726 99.7783126,98.7259463 99.5674201,98.2155123 C99.3565276,97.7050784 99.5993539,97.1203278 100.109788,96.9094353 C102.096706,96.0885137 101.400046,92.7869255 99.7130443,92.5498329 Z" id="Path" fill="#8E5E49" fill-rule="nonzero"></path>
            <path d="M194.952545,200.89298 C194.459366,201.141561 193.85805,200.943276 193.609469,200.450097 C193.360887,199.956918 193.559173,199.355602 194.052352,199.10702 C202.506695,194.845701 208.967917,192.704995 213.502449,192.704995 C214.054733,192.704995 214.502449,193.15271 214.502449,193.704995 C214.502449,194.25728 214.054733,194.704995 213.502449,194.704995 C209.355811,194.704995 203.150366,196.760959 194.952545,200.89298 Z" id="Shape" fill="#1B8489" fill-rule="nonzero"></path>
            <path d="M106.503239,34.5397516 C106.481285,33.9879033 106.910849,33.5227446 107.462697,33.5007904 C108.014545,33.4788362 108.479704,33.9084002 108.501658,34.4602484 C109.137495,50.4428837 113.812834,60.0827981 122.427888,63.573178 C131.365994,67.1944421 139.025165,68.9767084 145.393791,68.9330926 C145.946062,68.9293103 146.396833,69.3739489 146.400639,69.9262207 C146.404398,70.4784925 145.959759,70.9292634 145.407487,70.9330457 C138.745451,70.978671 130.83912,69.1388912 121.676886,65.426822 C112.1916,61.5838685 107.16698,51.223783 106.503239,34.5397516 Z" id="Shape" fill="#C9A392" fill-rule="nonzero"></path>
            <line x1="152.195087" y1="208" x2="159.158231" y2="205.172363" id="Shape" transform="translate(155.676659, 206.586181) rotate(22.101396) translate(-155.676659, -206.586181) "></line>
            <path d="M156.488588,129.913624 C169.385974,100.986373 203.049451,112.264595 189.397928,145.514943 C185.158293,155.841215 173.643901,177.053857 154.854751,209.152867 C115.100607,262.291331 94.6498396,290.240376 93.5024487,293 C90.2803939,300.749461 90.2803939,305 83.5024487,305 L49.5024487,305 C33.5253052,305 50.4064421,296.561408 56.6859885,293 C64.8186819,288.38759 78.045984,294.295895 80.138978,291 C81.5017949,288.853935 96.7143179,258.481376 125.776547,199.882323 C142.391846,161.892671 152.629193,138.569772 156.488588,129.913624 Z" id="Shape" fill="#FBD3C0"></path>
            <path d="M107.386355,236.231449 L125.776547,199.882323 C136.901093,175.555542 146.935214,151.755021 155.87891,128.480759 C169.294453,93.5693654 210.079264,110.563345 198.146167,136.869048 C190.190768,154.406183 177.027204,178.116501 158.655475,208 L127.811751,248 L107.386355,236.231449 Z" id="Shape" fill="#44D1D9"></path>
        </g>
        <g id="Table" transform="translate(502.497551, 558.000000)">
            <polygon id="Shape" fill="#FBE8DE" points="171.577134 51.3584645 190.092652 51.3584645 190.092652 328.11017 171.577134 328.11017"></polygon>
            <polygon id="Shape" fill="#F5CCB6" points="171.577134 51.3584645 190.092652 51.3584645 190.092652 132.901378 171.577134 132.901378"></polygon>
            <polygon id="Shape" fill="#EBBBA2" points="190.092652 51.3584645 208.60817 51.3584645 208.60817 328.11017 190.092652 328.11017"></polygon>
            <polygon id="Shape" fill="#E0AA8E" points="190.092652 51.3584645 208.60817 51.3584645 208.60817 132.901378 190.092652 132.901378"></polygon>
            <polygon id="Shape" fill="#FBE8DE" points="30.8591968 51.3584645 49.3747148 51.3584645 49.3747148 328.11017 30.8591968 328.11017"></polygon>
            <polygon id="Shape" fill="#F5CCB6" points="30.8591968 51.3584645 49.3747148 51.3584645 49.3747148 64.94895 30.8591968 64.94895"></polygon>
            <polygon id="Shape" fill="#EBBBA2" points="49.3747148 51.3584645 67.8902329 51.3584645 67.8902329 328.11017 49.3747148 328.11017"></polygon>
            <polygon id="Shape" fill="#E0AA8E" points="49.3747148 51.3584645 67.8902329 51.3584645 67.8902329 132.901378 49.3747148 132.901378"></polygon>
            <polygon id="Shape" fill="#D9A387" points="402.403926 51.3584645 420.919444 51.3584645 420.919444 328.11017 402.403926 328.11017"></polygon>
            <polygon id="Shape" fill="#FBE8DE" points="243.17047 51.3584645 261.685988 51.3584645 261.685988 328.11017 243.17047 328.11017"></polygon>
            <polygon id="Shape" fill="#EBBBA2" points="261.685988 51.3584645 280.201507 51.3584645 280.201507 328.11017 261.685988 328.11017"></polygon>
            <polygon id="Shape" fill="#F5CCB6" points="243.17047 51.3584645 261.685988 51.3584645 261.685988 64.94895 243.17047 64.94895"></polygon>
            <polygon id="Shape" fill="#E0AA8E" points="261.685988 51.3584645 280.201507 51.3584645 280.201507 64.94895 261.685988 64.94895"></polygon>
            <polygon id="Shape" fill="#EBBBA2" points="383.888408 51.3584645 402.403926 51.3584645 402.403926 328.11017 383.888408 328.11017"></polygon>
            <polygon id="Shape" fill="#D4A086" points="383.888408 51.3584645 402.403926 51.3584645 402.403926 132.901378 383.888408 132.901378"></polygon>
            <polygon id="Shape" fill="#E49A88" points="59.2496578 51.3584645 243.17047 51.3584645 243.17047 120.546391 59.2496578 120.546391"></polygon>
            <polygon id="Shape" fill="#D08775" points="59.2496578 51.3584645 243.17047 51.3584645 243.17047 77.3039369 59.2496578 77.3039369"></polygon>
            <polygon id="Shape" fill="#D08775" points="280.201507 51.3584645 391.294615 51.3584645 391.294615 120.546391 280.201507 120.546391"></polygon>
            <polygon id="Shape" fill="#BE715D" points="280.201507 51.3584645 391.294615 51.3584645 391.294615 77.3039369 280.201507 77.3039369"></polygon>
            <path d="M10.8,18 L285.138978,18 L285.138978,51.3584645 L10.8,51.3584645 C4.8353247,51.3584645 -9.09494702e-13,46.5231398 -9.09494702e-13,40.5584645 L-9.09494702e-13,28.8 C-9.09494702e-13,22.8353247 4.8353247,18 10.8,18 Z" id="Shape" fill="#FBE8DE"></path>
            <path d="M434.806801,18 C440.771476,18 445.606801,22.8353247 445.606801,28.8 L445.606801,40.5584645 C445.606801,46.5231398 440.771476,51.3584645 434.806801,51.3584645 L261.685988,51.3584645 L261.685988,18 L434.806801,18 Z" id="Shape" fill="#EBBBA2"></path>
            <polygon id="Shape" fill="#17699E" points="123.502449 0 180.502449 0 180.502449 18 123.502449 18"></polygon>
        </g>
        <g id="Plant" transform="translate(664.000000, 530.000000)">
            <path d="M117.152077,277.498399 C100.71229,265.620132 89.5241011,253.285008 83.5875112,240.493028 C74.6826264,221.305059 92.492396,211.711074 87.0124669,200.746519 C81.5325378,189.781965 62.3527859,182.243834 50.0229454,167.852857 C37.6931049,153.461879 52.8869146,134.443355 47.4069855,127.590508 C41.9270564,120.737662 23.9932821,110.288947 17.1433707,100.694962 C10.2934593,91.1009769 -2.03638115,69.1718684 0.703583408,63.6895913 C3.44354796,58.2073142 52.0779188,54.0956063 67.832715,63.6895913 C83.5875112,73.2835763 78.7925732,104.80667 87.0124669,110.974231 C95.2323605,117.141793 107.562201,99.542649 117.152077,123.99464 C126.741953,148.44663 111.672148,174.705703 117.152077,182.929119 C122.632006,191.152534 139.071793,182.929119 141.126767,211.711074 C142.496749,230.899043 134.505186,252.828152 117.152077,277.498399 Z" id="Shape" fill="#87F3FC"></path>
            <path d="M123.862892,187.170508 C130.784437,189.461727 139.653316,191.073919 141.126767,211.711074 C142.496749,230.899043 134.505186,252.828152 117.152077,277.498399 C100.71229,265.620132 89.5241011,253.285008 83.5875112,240.493028 C74.6826264,221.305059 92.492396,211.711074 87.0124669,200.746519 C81.5325378,189.781965 62.3527859,182.243834 50.0229454,167.852857 C37.6931049,153.461879 52.8869146,134.443355 47.4069855,127.590508 C41.9270564,120.737662 23.9932821,110.288947 17.1433707,100.694962 C12.1618604,93.7178592 4.28215852,80.2170314 1.4080377,71.2625013 C8.26576601,82.8364526 12.7382913,90.6564521 14.8256136,94.7224998 C18.9355605,102.728566 46.335206,114.12782 51.8151351,122.351235 C57.2950642,130.574651 55.925082,144.280344 60.0350288,156.615467 C64.1449756,168.950591 90.1746389,174.432868 93.6573129,184.712137 C97.139987,194.991407 94.7113196,205.955961 105.244444,209.637193 C112.039406,212.011971 118.245555,204.523076 123.862892,187.170508 Z" id="Path" fill="#44D1D9"></path>
            <path d="M164.898606,282.782952 C144.209966,260.656237 132.848839,244.12885 130.815223,233.200791 C127.7648,216.808701 135.901742,221.139744 137.944773,208.727906 C139.987805,196.316069 129.507052,185.545457 133.95316,172.258971 C138.399268,158.972485 152.663299,167.052739 155.24736,160.132928 C157.831421,153.213117 150.683827,139.583603 159.276544,127.141856 C167.869261,114.70011 176.593889,124.651369 183.674382,122.074281 C190.754874,119.497192 192.329143,105.797441 203.915403,101.580387 C215.501663,97.363333 234.819033,106.376208 236.694083,111.527864 C238.569132,116.679519 228.670197,125.532462 222.305653,132.079382 C215.941109,138.626302 204.094858,138.123477 200.305039,143.733274 C196.515219,149.343071 209.792273,157.782556 200.549824,168.439179 C191.307376,179.095802 178.314829,179.449114 175.707275,187.690833 C173.099721,195.932552 184.002907,205.090881 181.900413,215.336567 C179.797919,225.582253 161.127896,233.836115 160.900253,239.753088 C160.672611,245.67006 167.690568,251.866909 167.931688,259.071795 C168.092435,263.875053 167.081407,271.778772 164.898606,282.782952 Z" id="Shape" fill="#44D1D9"></path>
            <path d="M163.224222,247.065778 L138.382987,250.04291 C134.196679,243.430135 131.674091,237.816095 130.815223,233.200791 C127.7648,216.808701 135.901742,221.139744 137.944773,208.727906 C139.987805,196.316069 129.507052,185.545457 133.95316,172.258971 C138.399268,158.972485 152.663299,167.052739 155.24736,160.132928 C157.831421,153.213117 150.683827,139.583603 159.276544,127.141856 C161.655816,123.69681 164.045202,121.968644 166.406997,121.215991 C164.69101,123.621567 163.022683,126.740828 161.402018,130.573773 C153.86919,148.389243 163.459924,151.131565 163.461622,163.466071 C163.46332,175.800576 142.227522,175.738779 142.229503,190.129035 C142.231484,204.519292 152.921646,216.228892 163.468885,216.230344 C170.500378,216.231313 175.294802,210.74997 177.852156,199.786318 L178.161526,199.78636 C180.42277,204.675443 183.026277,209.850105 181.900413,215.336567 C179.797919,225.582253 161.127896,233.836115 160.900253,239.753088 C160.808816,242.129766 161.886383,244.5516 163.224222,247.065778 L163.224222,247.065778 Z" id="Path" fill="#36ACB3"></path>
            <path d="M169.764585,298.543697 C147.811639,260.169051 143.928782,224.119677 158.167757,190.480689 C172.343013,156.992237 187.507414,134.467365 203.714877,122.907004 L204.876262,124.53525 C189.027404,135.839828 174.053862,158.081201 160.009552,191.260299 C146.028962,224.288862 149.842061,259.690584 171.500592,297.550581 L169.764585,298.543697 Z" id="Path" fill="#1F74AC" fill-rule="nonzero"></path>
            <path d="M114.277408,260.423851 C110.03605,217.704018 99.9309605,180.842113 83.9684993,149.833567 C68.006858,118.826613 48.7495122,94.3252508 26.1995177,76.3197805 L27.4474482,74.7568763 C50.2295014,92.9476383 69.6615734,117.671307 85.74672,148.918181 C101.831047,180.163462 112.002561,217.267678 116.267623,260.226256 L114.277408,260.423851 Z" id="Path" fill="#1F74AC" fill-rule="nonzero"></path>
            <path d="M147.713895,345.986779 C101.208976,258.32404 71.1092252,210.944918 57.4146429,203.849412 C36.8727693,193.206153 35.0353103,212.895123 31.9792027,209.260623 C28.923095,205.626122 43.6683341,170.88269 68.7072655,194.594596 C85.3998865,210.402534 111.73543,260.866595 147.713895,345.986779 Z" id="Shape" fill="#7FE4EC"></path>
            <path d="M112.647065,265.328702 C118.284887,159.988156 125.973428,94.2735823 135.712688,68.1849819 C150.321578,29.0520815 169.633611,12.4586696 169.633611,15.8850928 C169.633611,19.311516 149.602192,35.9555656 139.418723,68.1849819 C119.288314,131.895232 126.641358,156.34821 115.800177,265.328702 C115.742537,265.908126 114.6915,265.908126 112.647065,265.328702 Z" id="Shape" fill="#1F74AC"></path>
            <path d="M156.409565,29.4938687 C152.269021,27.3984457 149.810541,24.8526152 149.034125,21.8563771 C148.257709,18.8601391 149.275476,14.7988512 152.087425,9.67251339 C156.462324,11.6046069 159.11566,14.5145839 160.047434,18.4024442 C160.979207,22.2903046 159.766584,25.9874461 156.409565,29.4938687 Z" id="Shape" fill="#9FF8FF"></path>
            <path d="M156.525723,29.3715566 C156.487293,29.412353 156.448574,29.4531237 156.409565,29.4938687 C152.269021,27.3984457 149.810541,24.8526152 149.034125,21.8563771 C148.265868,18.8916259 149.254283,14.8840918 151.999369,9.833775 C152.197876,13.3841276 152.638132,16.6788582 153.320138,19.7179668 C154.098631,23.1870317 155.167159,26.404895 156.525723,29.3715566 L156.525723,29.3715566 Z" id="Path" fill="#5CC5F7"></path>
            <path d="M167.746627,16.8818935 C166.455279,12.4246166 166.640502,8.89034592 168.302297,6.27908162 C169.964092,3.66781731 173.628446,1.64237308 179.295357,0.202748909 C180.865987,4.72003184 180.547335,8.6451585 178.339402,11.9781289 C176.131469,15.3110993 172.600544,16.9456875 167.746627,16.8818935 Z" id="Shape" fill="#9FF8FF"></path>
            <path d="M167.9153,16.8834294 C167.859255,16.8831468 167.80303,16.8826348 167.746627,16.8818935 C166.455279,12.4246166 166.640502,8.89034592 168.302297,6.27908162 C169.946629,3.69525848 173.551651,1.68500761 179.117363,0.248329017 C176.656181,2.81484196 174.546821,5.38382582 172.789285,7.9552806 C170.783102,10.8905306 169.158441,13.8665803 167.9153,16.8834294 L167.9153,16.8834294 Z" id="Path" fill="#5CC5F7"></path>
            <path d="M141.328661,54.9207389 C135.082396,53.6004298 130.838593,51.1502692 128.597253,47.570257 C126.355912,43.9902449 126.010206,38.4567132 127.560135,30.9696621 C134.044054,32.0038089 138.690955,34.856008 141.500838,39.5262595 C144.310721,44.1965109 144.253328,49.3280041 141.328661,54.9207389 Z" id="Shape" fill="#9FF8FF"></path>
            <path d="M141.429454,54.7259615 C141.396243,54.790825 141.362646,54.8557508 141.328661,54.9207389 C135.082396,53.6004298 130.838593,51.1502692 128.597253,47.570257 C126.379466,44.0278664 126.017682,38.5727987 127.5119,31.2050539 C129.229407,35.6844708 131.156249,39.7571516 133.292427,43.4230964 C135.730819,47.6076789 138.443162,51.3753006 141.429454,54.7259615 Z" id="Path" fill="#5CC5F7"></path>
            <path d="M130.135555,85.3067498 C123.913285,83.8776295 119.712889,81.3537775 117.53437,77.7351938 C115.355851,74.1166101 115.106771,68.5778878 116.787131,61.119027 C123.252014,62.2661763 127.848429,65.1990406 130.576377,69.91762 C133.304325,74.6361994 133.157384,79.7659093 130.135555,85.3067498 Z" id="Shape" fill="#9FF8FF"></path>
            <path d="M130.239733,85.1137612 C130.205395,85.1780352 130.170669,85.2423648 130.135555,85.3067498 C123.913285,83.8776295 119.712889,81.3537775 117.53437,77.7351938 C115.378744,74.154637 115.112219,68.6940861 116.734795,61.3535411 C118.373864,65.8622504 120.229334,69.967939 122.301207,73.6706069 C124.666197,77.8971079 127.312372,81.7114926 130.239733,85.1137612 L130.239733,85.1137612 Z" id="Path" fill="#5CC5F7"></path>
            <path d="M157.539415,32.6038319 C159.219346,28.0494486 162.010736,25.3388302 165.913584,24.4719769 C169.816433,23.6051235 173.595049,24.7142762 177.249432,27.799435 C173.874588,32.5740372 170.670486,35.2691514 167.637127,35.8847774 C164.603767,36.5004034 161.237863,35.4067549 157.539415,32.6038319 Z" id="Shape" fill="#9FF8FF"></path>
            <path d="M157.598428,32.4458118 C160.860401,32.3663822 164.221009,31.9161507 167.680253,31.0951172 C170.710757,30.3758427 173.865037,29.3272275 177.143092,27.9492716 C173.807264,32.6304522 170.638609,35.2756208 167.637127,35.8847774 C164.603767,36.5004034 161.237863,35.4067549 157.539415,32.6038319 C157.558936,32.5509096 157.578607,32.4982362 157.598428,32.4458118 Z" id="Path" fill="#5CC5F7"></path>
            <path d="M143.576757,56.3923444 C146.577891,50.8402673 150.799998,47.9231923 156.243078,47.6411195 C161.686159,47.3590466 166.649253,49.6165724 171.132361,54.413697 C165.792024,59.8853523 161.011202,62.6930608 156.789895,62.8368227 C152.568589,62.9805845 148.16421,60.8324251 143.576757,56.3923444 Z" id="Shape" fill="#9FF8FF"></path>
            <path d="M143.681872,56.1998649 C148.129609,56.8019477 152.769832,56.9437541 157.602539,56.6252841 C161.836281,56.3462853 166.290163,55.6662958 170.964185,54.5853155 C165.691604,59.9440692 160.966841,62.6945716 156.789895,62.8368227 C152.568589,62.9805845 148.16421,60.8324251 143.576757,56.3923444 C143.61163,56.3278288 143.646669,56.2636689 143.681872,56.1998649 Z" id="Path" fill="#5CC5F7"></path>
            <path d="M133.734905,88.0641495 C135.515462,82.0094551 139.038349,78.2785606 144.303565,76.8714659 C149.568782,75.4643712 154.892771,76.6412443 160.275534,80.4020854 C156.190269,86.8642415 152.098153,90.6042658 147.999188,91.6221583 C143.900222,92.6400508 139.145461,91.4540479 133.734905,88.0641495 Z" id="Shape" fill="#9FF8FF"></path>
            <path d="M133.797075,87.8552562 C138.272799,87.5194455 142.841105,86.6933966 147.501993,85.3771094 C151.585209,84.2239631 155.800386,82.6328189 160.147521,80.6036767 C156.104306,86.94156 152.054652,90.6142908 147.998558,91.6218692 C143.899388,92.6401484 139.144627,91.4546534 133.734276,88.0653842 C133.754974,87.9950278 133.775907,87.9249851 133.797075,87.8552562 Z" id="Path" fill="#5CC5F7"></path>
            <path d="M122.767808,120.428081 C116.660871,118.566906 112.646762,115.754993 110.725483,111.992341 C108.804204,108.229689 108.940958,102.686331 111.135745,95.3622652 C117.504282,96.9590945 121.884951,100.206784 124.27775,105.105333 C126.67055,110.003882 126.167236,115.111465 122.767808,120.428081 Z" id="Shape" fill="#9FF8FF"></path>
            <path d="M122.883701,120.239902 C122.844964,120.301624 122.805835,120.363374 122.766316,120.425153 C116.658892,118.56547 112.644784,115.754762 110.723991,111.993027 C108.823384,108.270823 108.938416,102.804982 111.06909,95.5955034 C112.389655,100.207565 113.954207,104.432684 115.762748,108.270859 C117.827151,112.652037 120.200802,116.641718 122.883701,120.239902 L122.883701,120.239902 Z" id="Path" fill="#5CC5F7"></path>
            <path d="M120.292885,150.319485 C113.970107,149.43697 109.565727,147.28789 107.079746,143.872246 C104.593764,140.456602 103.862034,134.960089 104.884554,127.382707 C111.424376,127.963191 116.258944,130.485315 119.388258,134.949078 C122.517573,139.412841 122.819115,144.53631 120.292885,150.319485 Z" id="Shape" fill="#9FF8FF"></path>
            <path d="M120.378705,150.115914 C120.3501,150.182936 120.321113,150.250047 120.291744,150.317248 C113.968595,149.435872 109.564216,147.287713 107.078606,143.87277 C104.619117,140.493713 103.877687,135.07717 104.854318,127.623142 C106.88011,131.97184 109.086354,135.90019 111.473052,139.408192 C114.197406,143.412488 117.165957,146.981728 120.378705,150.115914 L120.378705,150.115914 Z" id="Path" fill="#5CC5F7"></path>
            <path d="M118.487158,181.810461 C112.112228,182.15112 107.378881,180.88228 104.287118,178.003942 C101.195354,175.125603 99.4287325,169.869757 98.9872529,162.236404 C105.517634,161.557831 110.744415,163.110742 114.667597,166.895136 C118.590778,170.67953 119.863965,175.651305 118.487158,181.810461 Z" id="Shape" fill="#9FF8FF"></path>
            <path d="M118.533432,181.594913 C118.518141,181.666161 118.502492,181.737571 118.486485,181.80914 C112.111335,182.150472 107.377988,180.882175 104.286444,178.004251 C101.227389,175.15657 99.4660565,169.981016 99.0024478,162.477589 C101.820791,166.359849 104.736065,169.795054 107.74827,172.783201 C111.186626,176.194095 114.78168,179.131332 118.533432,181.594913 Z" id="Path" fill="#5CC5F7"></path>
            <path d="M126.615888,120.989958 C127.754074,114.782233 130.867844,110.703377 135.957198,108.75339 C141.046553,106.803402 146.464341,107.417082 152.210563,110.594427 C148.822867,117.448393 145.143941,121.595854 141.173783,123.036813 C137.203625,124.477772 132.350993,123.795486 126.615888,120.989958 Z" id="Shape" fill="#9FF8FF"></path>
            <path d="M126.656017,120.775127 C131.07212,119.973315 135.529054,118.674273 140.02682,116.878002 C143.967132,115.30436 147.992897,113.281326 152.104115,110.808901 C148.745539,117.534695 145.101974,121.610611 141.173421,123.036647 C137.203145,124.477828 132.350513,123.795835 126.615526,120.990668 C126.628756,120.918533 126.642253,120.846686 126.656017,120.775127 Z" id="Path" fill="#5CC5F7"></path>
            <path d="M123.40251,150.162815 C124.10508,143.890782 126.92686,139.604563 131.867851,137.304158 C136.808843,135.003753 142.256223,135.23785 148.209993,138.006448 C145.308453,145.080132 141.927677,149.47423 138.067663,151.188741 C134.207649,152.903253 129.319265,152.561277 123.40251,150.162815 Z" id="Shape" fill="#9FF8FF"></path>
            <path d="M123.427685,149.94533 C127.7771,148.83742 132.132561,147.230642 136.494068,145.124998 C140.31501,143.280327 144.189849,140.981398 148.118585,138.228211 C145.237358,145.171905 141.88699,149.492054 138.067481,151.188658 C134.207408,152.903281 129.319024,152.561452 123.402328,150.163171 C123.410495,150.090289 123.418947,150.017675 123.427685,149.94533 L123.427685,149.94533 Z" id="Path" fill="#5CC5F7"></path>
            <path d="M122.528028,182.258083 C123.011373,175.965341 125.681911,171.583213 130.539644,169.111697 C135.397377,166.640182 140.849605,166.683943 146.89633,169.242982 C144.24332,176.413663 141.017889,180.923122 137.220036,182.771359 C133.422184,184.619596 128.524848,184.448504 122.528028,182.258083 Z" id="Shape" fill="#9FF8FF"></path>
            <path d="M122.545676,182.039668 C126.853775,180.780641 131.150507,179.022839 135.435872,176.766263 C139.190108,174.789367 142.982355,172.356608 146.812613,169.467988 C144.175472,176.508005 140.977916,180.942448 137.219945,182.771318 C133.422063,184.61961 128.524727,184.448592 122.527937,182.258261 C122.533555,182.185139 122.539468,182.112275 122.545676,182.039668 Z" id="Path" fill="#5CC5F7"></path>
            <path d="M122,231 L175,231 L175,337 C175,348.59798 165.59798,358 154,358 L122,358 L122,231 Z" id="Shape" fill="#17699E"></path>
            <path d="M78,231 L147,231 L147,337 C147,348.59798 137.59798,358 126,358 L99,358 C87.4020203,358 78,348.59798 78,337 L78,231 Z" id="Shape" fill="#3C86B7"></path>
            <polygon id="Shape" fill="#80D6DD" points="79 308 106 308 106 324 79 324"></polygon>
            <polygon id="Shape" fill="#80D6DD" points="79 283 99 283 99 299 79 299"></polygon>
        </g>
        <rect id="Rectangle" x="0" y="0" width="1440" height="1024"></rect>
    </g>
</svg>